# xmcd
#
# Track frame offsets:
#	150
#	12315
#	28433
#	51243
#	74721
#	86589
#	100356
#	111045
#	123872
#	133725
#	146877
#	161682
#	175424
#	188714
#	205002
#	218766
#	231989
#	244478
#	255211
#	268390
#	281251
#	295361
#	318902
#	333515
#	345083
#
# Disc length: 4792 seconds
#
# Revision: 0
# Processed by: cddbd v1.5.1PL0 Copyright (c) Steve Scherf et al.
# Submitted via: EasyCDDAExtractor 8.0.1.1
#
DISCID=8612b619
DTITLE=Various Artist - Les Plus Grands Artistes De Blues - Cd3
DYEAR=2005
DGENRE=Blues
TTITLE0=Wilbert Harison - Let's Work Together
TTITLE1=Screamin' Jay Hawkins - I Put A Spell On You
TTITLE2=B.B. King - The Thrill Is Gone
TTITLE3=John Mayall - Baby What You Want Me To Do
TTITLE4=Buddy Guy and Junior Wells - Messin' With The King
TTITLE5=John Lee Hooker - Dirty Groundhog Blues
TTITLE6=Clarence Frogman Henry - But I Do
TTITLE7=Arthur Crudup - So Glad You're Mine
TTITLE8=Buddy Guy - Slop Around
TTITLE9=Willie Mae "Big Mamma" Thomton - Hound Dog
TTITLE10=Charles Brown - Baby Let Me Hold Your Hand
TTITLE11=Johnny Otis - Barrelhouse Blues
TTITLE12=Lightnin' Hopkins - Jakehead Boogie
TTITLE13=Muddy Waters - Country Blues
TTITLE14=Sonny Boy Williamson - Better Cut That Out
TTITLE15=Robert Johnson - Rambling On My Mind
TTITLE16=Memphis Slim - Whiskey And Gin Blues
TTITLE17=Dr. John - Woman Is The Root Of All Evil
TTITLE18=Mississipi Fred Mc Dowel - Got To Move
TTITLE19=Lonnie Johnson - Blues In G.
TTITLE20=Buddy Guy and Junior Wells - No Use Cryin'
TTITLE21=Jimmy Whiterspoon - Ain't Nobody's Business
TTITLE22=Buddy Guy - Broken Hearted Blues
TTITLE23=Memphis Slim - Worried Life Blues
TTITLE24=Ray Charles - Blues Is My Middle Name
EXTD=
EXTT0=
EXTT1=
EXTT2=
EXTT3=
EXTT4=
EXTT5=
EXTT6=
EXTT7=
EXTT8=
EXTT9=
EXTT10=
EXTT11=
EXTT12=
EXTT13=
EXTT14=
EXTT15=
EXTT16=
EXTT17=
EXTT18=
EXTT19=
EXTT20=
EXTT21=
EXTT22=
EXTT23=
EXTT24=
PLAYORDER=
